<svg width="203" height="150" viewBox="0 0 203 150" fill="none" xmlns="http://www.w3.org/2000/svg">
<g filter="url(#filter0_d_1_7)">
<path d="M25 40C25 25.8579 25 18.7868 29.3934 14.3934C33.7868 10 40.8579 10 55 10H148C162.142 10 169.213 10 173.607 14.3934C178 18.7868 178 25.8579 178 40V80C178 94.1421 178 101.213 173.607 105.607C169.213 110 162.142 110 148 110H55C40.8579 110 33.7868 110 29.3934 105.607C25 101.213 25 94.1421 25 80V40Z" fill="url(#paint0_linear_1_7)"/>
</g>
<mask id="mask0_1_7" style="mask-type:alpha" maskUnits="userSpaceOnUse" x="25" y="10" width="153" height="100">
<path d="M25 40C25 25.8579 25 18.7868 29.3934 14.3934C33.7868 10 40.8579 10 55 10H148C162.142 10 169.213 10 173.607 14.3934C178 18.7868 178 25.8579 178 40V80C178 94.1421 178 101.213 173.607 105.607C169.213 110 162.142 110 148 110H55C40.8579 110 33.7868 110 29.3934 105.607C25 101.213 25 94.1421 25 80V40Z" fill="url(#paint1_linear_1_7)"/>
</mask>
<g mask="url(#mask0_1_7)">
<path opacity="0.15" d="M124.5 86.4286C106.1 84.1428 99.1667 103.571 98 113.571H201V14.2856C165.5 -3.57152 165.5 33.5713 164 53.5713C162.5 73.5713 147.5 89.2857 124.5 86.4286Z" fill="url(#paint2_linear_1_7)"/>
</g>
<defs>
<filter id="filter0_d_1_7" x="0" y="0" width="203" height="150" filterUnits="userSpaceOnUse" color-interpolation-filters="sRGB">
<feFlood flood-opacity="0" result="BackgroundImageFix"/>
<feColorMatrix in="SourceAlpha" type="matrix" values="0 0 0 0 0 0 0 0 0 0 0 0 0 0 0 0 0 0 127 0" result="hardAlpha"/>
<feOffset dy="15"/>
<feGaussianBlur stdDeviation="12.5"/>
<feColorMatrix type="matrix" values="0 0 0 0 0.361961 0 0 0 0 0.305882 0 0 0 0 0.521569 0 0 0 0.15 0"/>
<feBlend mode="normal" in2="BackgroundImageFix" result="effect1_dropShadow_1_7"/>
<feBlend mode="normal" in="SourceGraphic" in2="effect1_dropShadow_1_7" result="shape"/>
</filter>
<linearGradient id="paint0_linear_1_7" x1="25" y1="60" x2="178" y2="60" gradientUnits="userSpaceOnUse">
<stop stop-color="#704218"/>
<stop offset="1" stop-color="#F9CB40"/>
</linearGradient>
<linearGradient id="paint1_linear_1_7" x1="25" y1="60" x2="178" y2="60" gradientUnits="userSpaceOnUse">
<stop stop-color="#25196B"/>
<stop offset="1" stop-color="#D994A7"/>
</linearGradient>
<linearGradient id="paint2_linear_1_7" x1="131.5" y1="40" x2="170.113" y2="78.1591" gradientUnits="userSpaceOnUse">
<stop/>
<stop offset="1" stop-opacity="0"/>
</linearGradient>
</defs>
</svg>
